<svg width="32" height="32" viewBox="0 0 32 32" fill="none" xmlns="http://www.w3.org/2000/svg">
<circle cx="16" cy="16" r="16" fill="#CC926E"/>
<path d="M18.6667 9.77787H21.3333L20 11.5556L18.6667 9.77787ZM9.77778 7.11121H22.2222C23.2089 7.11121 24 7.91121 24 8.88898V23.1112C24 24.0979 23.2089 24.889 22.2222 24.889H9.77778C8.8 24.889 8 24.0979 8 23.1112V8.88898C8 7.91121 8.8 7.11121 9.77778 7.11121ZM9.77778 8.88898V12.4445H22.2222V8.88898H9.77778ZM9.77778 23.1112H22.2222V14.2223H9.77778V23.1112ZM11.5556 16.0001H20.4444V17.7779H11.5556V16.0001ZM11.5556 19.5556H20.4444V21.3334H11.5556V19.5556Z" fill="white"/>
</svg>
