<svg width="410" height="230" viewBox="0 0 410 230" fill="none" xmlns="http://www.w3.org/2000/svg">
<path d="M0 16C0 7.16345 7.16344 0 16 0H394C402.837 0 410 7.16344 410 16V230H0V16Z" fill="#CFE9EE"/>
<path d="M218.103 154.736H133.972C131.956 154.736 130.314 153.094 130.314 151.078V74.2622H254.684V114.498C254.684 116.518 256.323 118.156 258.342 118.156C260.362 118.156 262 116.518 262 114.498L261.999 55.9737C261.999 49.9234 257.076 45 251.026 45H133.974C127.923 45 123 49.9234 123 55.9737V151.078C123 157.128 127.923 162.052 133.974 162.052H218.104C220.124 162.052 221.763 160.413 221.763 158.394C221.763 156.374 220.124 154.735 218.104 154.735L218.103 154.736ZM133.972 52.3141H251.024C253.04 52.3141 254.683 53.9565 254.683 55.9725V66.9462H130.313V55.9725C130.313 53.9565 131.955 52.3141 133.971 52.3141H133.972Z" fill="#1A9FBD"/>
<path d="M141.287 59.6295C141.287 61.6503 139.65 63.2878 137.629 63.2878C135.609 63.2878 133.972 61.6503 133.972 59.6295C133.972 57.6099 135.609 55.9724 137.629 55.9724C139.65 55.9724 141.287 57.6099 141.287 59.6295Z" fill="#1A9FBD"/>
<path d="M152.261 59.6295C152.261 61.6503 150.623 63.2878 148.602 63.2878C146.583 63.2878 144.945 61.6503 144.945 59.6295C144.945 57.6099 146.583 55.9724 148.602 55.9724C150.623 55.9724 152.261 57.6099 152.261 59.6295Z" fill="#1A9FBD"/>
<path d="M163.234 59.6295C163.234 61.6503 161.597 63.2878 159.576 63.2878C157.556 63.2878 155.919 61.6503 155.919 59.6295C155.919 57.6099 157.556 55.9724 159.576 55.9724C161.597 55.9724 163.234 57.6099 163.234 59.6295Z" fill="#1A9FBD"/>
<path d="M253.846 125.839C239.684 125.839 228.163 137.36 228.163 151.522C228.163 165.684 239.684 177.204 253.846 177.204C258.175 177.204 262.431 176.177 266.027 174.196C266.315 174.542 266.634 174.862 266.981 175.15L274.319 182.487C274.996 183.25 275.822 183.866 276.747 184.297C277.671 184.729 278.673 184.967 279.693 184.997C280.712 185.027 281.727 184.848 282.675 184.472C283.623 184.095 284.484 183.529 285.206 182.808C285.927 182.087 286.493 181.226 286.869 180.278C287.246 179.33 287.425 178.315 287.395 177.295C287.365 176.276 287.126 175.273 286.695 174.349C286.263 173.425 285.648 172.598 284.885 171.921L277.547 164.583C277.19 164.225 276.796 163.906 276.373 163.629C278.354 160.034 279.602 155.851 279.602 151.448C279.602 137.286 268.081 125.766 253.919 125.766L253.846 125.839ZM253.846 133.177C264.046 133.177 272.191 141.322 272.191 151.522C272.191 156.365 270.43 160.841 267.348 164.143C267.274 164.216 267.201 164.29 267.128 164.363C266.781 164.651 266.462 164.97 266.174 165.317C262.945 168.252 258.542 169.94 253.773 169.94C243.573 169.94 235.428 161.795 235.428 151.595C235.428 141.395 243.573 133.25 253.773 133.25L253.846 133.177Z" fill="#1A9FBD"/>
<path d="M192.616 82.0177C182.069 82.0177 164.224 84.174 164.224 92.2487V131.064C164.224 131.366 164.272 131.666 164.369 131.953C166.112 139.008 182.619 140.909 192.616 140.909C203.033 140.909 220.566 138.801 220.987 130.961V130.761V92.2486C221.008 84.174 203.163 82.0177 192.616 82.0177L192.616 82.0177ZM215.497 117.788C214.622 119.496 206.141 122.61 192.616 122.61C179.091 122.61 170.612 119.503 169.736 117.788V111.546C175.853 114.391 185.775 115.301 192.616 115.301C199.458 115.301 209.379 114.391 215.497 111.546V117.788ZM215.497 104.967C214.622 106.676 206.141 109.79 192.616 109.79C179.091 109.79 170.612 106.682 169.736 104.967V98.7251C175.853 101.571 185.775 102.48 192.616 102.48C199.458 102.48 209.379 101.571 215.497 98.7251V104.967ZM192.616 87.5294C205.886 87.5294 214.297 90.5195 215.441 92.2486C214.298 93.9782 205.886 96.9678 192.616 96.9678C179.347 96.9678 170.935 93.9781 169.791 92.2486C170.935 90.5194 179.347 87.5294 192.616 87.5294ZM192.616 135.425C179.092 135.425 170.612 132.318 169.736 130.603V124.36C175.853 127.206 185.775 128.115 192.616 128.115C199.458 128.115 209.379 127.206 215.497 124.36V130.602C214.622 132.318 206.141 135.425 192.616 135.425Z" fill="#1A9FBD"/>
</svg>
