<svg width="25" height="24" viewBox="0 0 25 24" fill="none" xmlns="http://www.w3.org/2000/svg">
<path d="M12.6001 2C7.0751 2 2.6001 6.59118 2.6001 12.2539C2.6001 16.7853 5.4651 20.6279 9.4376 21.9823C9.9376 22.0788 10.1209 21.7618 10.1209 21.4892C10.1209 21.2457 10.1126 20.6006 10.1084 19.7461C7.32677 20.3647 6.7401 18.3703 6.7401 18.3703C6.2851 17.1869 5.6276 16.8707 5.6276 16.8707C4.72177 16.235 5.6976 16.2478 5.6976 16.2478C6.70177 16.3196 7.22927 17.3039 7.22927 17.3039C8.12093 18.8719 9.5701 18.4191 10.1418 18.1567C10.2318 17.4936 10.4893 17.0416 10.7751 16.7853C8.55427 16.5289 6.2201 15.6471 6.2201 11.7181C6.2201 10.5987 6.6076 9.68444 7.24927 8.96667C7.13677 8.70776 6.79927 7.66528 7.33677 6.2528C7.33677 6.2528 8.17427 5.97766 10.0868 7.30383C10.8868 7.07568 11.7368 6.96289 12.5868 6.95776C13.4368 6.96289 14.2868 7.07568 15.0868 7.30383C16.9868 5.97766 17.8243 6.2528 17.8243 6.2528C18.3618 7.66528 18.0243 8.70776 17.9243 8.96667C18.5618 9.68444 18.9493 10.5987 18.9493 11.7181C18.9493 15.6573 16.6118 16.5246 14.3868 16.7767C14.7368 17.0843 15.0618 17.7132 15.0618 18.6737C15.0618 20.046 15.0493 21.1483 15.0493 21.4816C15.0493 21.7507 15.2243 22.0711 15.7368 21.9686C19.7376 20.6236 22.6001 16.7784 22.6001 12.2539C22.6001 6.59118 18.1226 2 12.6001 2Z" fill="white"/>
</svg>
