<svg width="25" height="24" viewBox="0 0 25 24" fill="none" xmlns="http://www.w3.org/2000/svg">
<path d="M12.2002 2C9.48353 2 9.14436 2.0125 8.0777 2.06C7.0127 2.11 6.2877 2.2775 5.6502 2.525C4.9927 2.78 4.43436 3.1225 3.87853 3.67833C3.3227 4.23417 2.97936 4.79167 2.7252 5.45C2.4777 6.0875 2.30936 6.8125 2.2602 7.8775C2.2102 8.94417 2.2002 9.28333 2.2002 12C2.2002 14.7167 2.2127 15.0558 2.2602 16.1225C2.3102 17.1867 2.4777 17.9125 2.7252 18.55C2.9802 19.2067 3.3227 19.7658 3.87853 20.3217C4.43436 20.8767 4.99186 21.2208 5.6502 21.475C6.28853 21.7217 7.01353 21.8908 8.0777 21.94C9.14436 21.99 9.48353 22 12.2002 22C14.9169 22 15.256 21.9875 16.3227 21.94C17.3869 21.89 18.1127 21.7217 18.7502 21.475C19.4069 21.22 19.966 20.8767 20.5219 20.3217C21.0769 19.7658 21.421 19.2092 21.6752 18.55C21.9219 17.9125 22.091 17.1867 22.1402 16.1225C22.1902 15.0558 22.2002 14.7167 22.2002 12C22.2002 9.28333 22.1877 8.94417 22.1402 7.8775C22.0902 6.81333 21.9219 6.08667 21.6752 5.45C21.4202 4.7925 21.0769 4.23417 20.5219 3.67833C19.966 3.1225 19.4094 2.77917 18.7502 2.525C18.1127 2.2775 17.3869 2.10917 16.3227 2.06C15.256 2.01 14.9169 2 12.2002 2ZM12.2002 3.8C14.8694 3.8 15.1877 3.81333 16.2419 3.85917C17.2169 3.905 17.746 4.06667 18.0977 4.205C18.566 4.38583 18.8977 4.6025 19.2494 4.95167C19.5985 5.30167 19.8152 5.63417 19.996 6.1025C20.1327 6.45417 20.296 6.98333 20.3402 7.95833C20.3877 9.01333 20.3985 9.33 20.3985 12C20.3985 14.67 20.386 14.9875 20.3369 16.0417C20.286 17.0167 20.1235 17.5458 19.986 17.8975C19.7994 18.3658 19.5869 18.6975 19.2369 19.0492C18.8877 19.3983 18.5502 19.615 18.0869 19.7958C17.7369 19.9325 17.1994 20.0958 16.2244 20.14C15.1627 20.1875 14.8502 20.1983 12.1752 20.1983C9.49937 20.1983 9.18686 20.1858 8.12603 20.1367C7.1502 20.0858 6.6127 19.9233 6.2627 19.7858C5.78853 19.5992 5.4627 19.3867 5.11353 19.0367C4.7627 18.6875 4.53853 18.35 4.36353 17.8867C4.22603 17.5367 4.06436 16.9992 4.01353 16.0242C3.97603 14.9742 3.9627 14.65 3.9627 11.9875C3.9627 9.32417 3.97603 8.99917 4.01353 7.93667C4.06436 6.96167 4.22603 6.425 4.36353 6.075C4.53853 5.6 4.7627 5.275 5.11353 4.92417C5.4627 4.575 5.78853 4.35 6.2627 4.17583C6.6127 4.0375 7.13853 3.875 8.11353 3.825C9.17603 3.7875 9.48853 3.775 12.1627 3.775L12.2002 3.8ZM12.2002 6.865C9.3627 6.865 7.0652 9.165 7.0652 12C7.0652 14.8375 9.3652 17.135 12.2002 17.135C15.0377 17.135 17.3352 14.835 17.3352 12C17.3352 9.1625 15.0352 6.865 12.2002 6.865ZM12.2002 15.3333C10.3585 15.3333 8.86686 13.8417 8.86686 12C8.86686 10.1583 10.3585 8.66667 12.2002 8.66667C14.0419 8.66667 15.5335 10.1583 15.5335 12C15.5335 13.8417 14.0419 15.3333 12.2002 15.3333ZM18.7385 6.6625C18.7385 7.325 18.2002 7.8625 17.5385 7.8625C16.876 7.8625 16.3385 7.32417 16.3385 6.6625C16.3385 6.00083 16.8769 5.46333 17.5385 5.46333C18.1994 5.4625 18.7385 6.00083 18.7385 6.6625Z" fill="white"/>
</svg>
