<svg width="21" height="20" viewBox="0 0 21 20" fill="none" xmlns="http://www.w3.org/2000/svg">
<g clip-path="url(#clip0_16397_14395)">
<path d="M17.839 17.0433H14.8773V12.4025C14.8773 11.2958 14.8548 9.87167 13.334 9.87167C11.7898 9.87167 11.554 11.0758 11.554 12.3208V17.0433H8.5923V7.5H11.4373V8.80083H11.4756C11.8731 8.05083 12.8398 7.25917 14.284 7.25917C17.2848 7.25917 17.8398 9.23417 17.8398 11.805V17.0433H17.839ZM5.2473 6.19417C4.29397 6.19417 3.52814 5.4225 3.52814 4.47333C3.52814 3.525 4.2948 2.75417 5.2473 2.75417C6.1973 2.75417 6.9673 3.525 6.9673 4.47333C6.9673 5.4225 6.19647 6.19417 5.2473 6.19417ZM6.7323 17.0433H3.7623V7.5H6.7323V17.0433ZM19.3206 0H2.27564C1.4598 0 0.799805 0.645 0.799805 1.44083V18.5592C0.799805 19.3558 1.4598 20 2.27564 20H19.3181C20.1331 20 20.7998 19.3558 20.7998 18.5592V1.44083C20.7998 0.645 20.1331 0 19.3181 0H19.3206Z" fill="white"/>
</g>
<defs>
<clipPath id="clip0_16397_14395">
<rect width="20" height="20" fill="white" transform="translate(0.799805)"/>
</clipPath>
</defs>
</svg>
