<svg width="24" height="24" viewBox="0 0 24 24" fill="none" xmlns="http://www.w3.org/2000/svg">
<path d="M0 8.05C0 5.20255 0 3.77882 0.562933 2.69513C1.03731 1.78191 1.78191 1.03731 2.69513 0.562933C3.77882 0 5.20255 0 8.05 0H15.95C18.7975 0 20.2212 0 21.3049 0.562933C22.2181 1.03731 22.9627 1.78191 23.4371 2.69513C24 3.77882 24 5.20255 24 8.05V15.95C24 18.7975 24 20.2212 23.4371 21.3049C22.9627 22.2181 22.2181 22.9627 21.3049 23.4371C20.2212 24 18.7975 24 15.95 24H8.05C5.20255 24 3.77882 24 2.69513 23.4371C1.78191 22.9627 1.03731 22.2181 0.562933 21.3049C0 20.2212 0 18.7975 0 15.95V8.05Z" fill="#1265BF"/>
<path d="M5.38668 7.4533C6.53654 7.4533 7.46868 6.52116 7.46868 5.3713C7.46868 4.22145 6.53654 3.28931 5.38668 3.28931C4.23683 3.28931 3.30469 4.22145 3.30469 5.3713C3.30469 6.52116 4.23683 7.4533 5.38668 7.4533Z" fill="white"/>
<path d="M9.37543 8.99195H12.826V10.5727C12.826 10.5727 13.7623 8.69996 16.31 8.69996C18.5826 8.69996 20.4653 9.81952 20.4653 13.232V20.428H16.8895V14.104C16.8895 12.0909 15.8148 11.8695 14.9959 11.8695C13.2963 11.8695 13.0053 13.3355 13.0053 14.3666V20.428H9.37543V8.99195Z" fill="white"/>
<path d="M3.57176 8.99196H7.20161V20.428H3.57176V8.99196Z" fill="white"/>
</svg>
