<svg width="114" height="40" viewBox="0 0 114 40" fill="none" xmlns="http://www.w3.org/2000/svg">
<path d="M12.2891 12.7081C13.5252 12.7081 14.763 12.7081 16.0394 12.7081C16.0394 13.5055 16.0394 14.2821 16.0394 15.1604C17.0359 13.1111 18.7144 12.3672 20.795 12.412C22.893 12.4567 24.4858 13.3832 25.4317 15.2534C25.7656 14.8332 26.0698 14.3751 26.4493 13.9911C27.4179 13.0095 28.6347 12.5411 30.0072 12.4292C30.9146 12.3551 31.8081 12.4326 32.6735 12.7202C34.2733 13.2489 35.2576 14.3785 35.8224 15.9009C36.228 16.9944 36.3416 18.1361 36.3434 19.2916C36.3469 21.9815 36.3451 24.6713 36.3451 27.3612C36.3451 27.4284 36.3364 27.4972 36.3294 27.592C35.1073 27.592 33.8904 27.592 32.6315 27.592C32.6315 27.4576 32.6315 27.325 32.6315 27.1924C32.6315 24.6954 32.6455 22.2002 32.6211 19.7032C32.6158 19.1297 32.5476 18.5373 32.3868 17.988C32.0563 16.8635 31.28 16.1419 30.0772 16.0076C28.7152 15.8561 27.556 16.2435 26.8059 17.4628C26.4388 18.0586 26.2569 18.7199 26.2499 19.4121C26.2237 21.9866 26.2132 24.5611 26.1992 27.1373C26.1992 27.2837 26.1992 27.4301 26.1992 27.5988C24.9404 27.5988 23.7095 27.5988 22.4384 27.5988C22.4384 27.4559 22.4384 27.3216 22.4384 27.189C22.4367 24.5215 22.4437 21.854 22.4245 19.1866C22.4175 18.3255 22.1919 17.5075 21.5922 16.8514C20.6621 15.8337 19.4854 15.7993 18.2738 16.1798C16.8856 16.6155 16.2754 17.6815 16.1145 19.0367C16.0586 19.5103 16.0568 19.9925 16.0551 20.4695C16.0498 22.703 16.0533 24.9383 16.0533 27.1718C16.0533 27.3061 16.0533 27.4421 16.0533 27.6212C14.7823 27.6212 13.5357 27.6212 12.2908 27.6212C12.2891 22.6479 12.2891 17.678 12.2891 12.7081Z" fill="white"/>
<path d="M51.0401 14.4749C51.0401 13.9617 51.0401 13.3556 51.0401 12.7287C52.2972 12.7287 53.5193 12.7287 54.7694 12.7287C54.7694 17.6693 54.7694 22.6186 54.7694 27.5919C53.549 27.5919 52.3199 27.5919 51.0593 27.5919C51.0593 26.9702 51.0593 26.3486 51.0593 25.7062C50.9964 25.7269 50.9562 25.7269 50.9404 25.7476C49.9456 27.0735 48.5346 27.6832 46.9401 27.8709C44.4959 28.1602 42.3681 27.4421 40.6547 25.677C39.4203 24.4061 38.7944 22.8528 38.616 21.1135C38.4255 19.2623 38.6912 17.4868 39.6826 15.8887C41.2264 13.4003 43.5377 12.2862 46.4768 12.4222C47.8353 12.4859 49.0801 12.8941 50.1571 13.7379C50.4701 13.9841 50.7691 14.2476 51.0401 14.4749ZM46.5922 15.8491C44.1881 15.8508 42.3663 17.6848 42.3628 20.1061C42.3593 22.548 44.2126 24.4577 46.5957 24.4646C49.0417 24.4732 50.9824 22.5462 50.9789 20.1164C50.9736 17.7434 49.0242 15.8474 46.5922 15.8491Z" fill="white"/>
<path d="M83.2217 14.4835C83.2217 13.9599 83.2217 13.3521 83.2217 12.7269C84.4788 12.7269 85.7009 12.7269 86.9492 12.7269C86.9492 17.6727 86.9492 22.6219 86.9492 27.5935C85.7236 27.5935 84.4945 27.5935 83.2339 27.5935C83.2339 26.9667 83.2339 26.3468 83.2339 25.6631C82.9402 25.9679 82.7111 26.2486 82.4401 26.4794C81.2093 27.5264 79.7354 27.9448 78.1461 27.9345C76.0515 27.9207 74.2419 27.1716 72.803 25.651C71.5617 24.3371 70.9357 22.7528 70.7801 20.9739C70.6158 19.0951 70.92 17.3059 71.969 15.7113C73.5234 13.3503 75.7858 12.293 78.6217 12.4204C79.9924 12.4824 81.2495 12.8888 82.3352 13.7412C82.6482 13.9875 82.9437 14.251 83.2217 14.4835ZM78.7633 15.849C76.361 15.8525 74.5392 17.6882 74.5374 20.1094C74.5357 22.5496 76.3925 24.4594 78.7738 24.4645C81.2215 24.4697 83.1605 22.5427 83.1535 20.1129C83.1482 17.7399 81.1988 15.8456 78.7633 15.849Z" fill="white"/>
<path d="M68.7905 17.0339C67.6068 17.0339 66.4319 17.0339 65.2605 17.0339C64.8793 15.4995 63.2726 14.8589 61.9385 15.6993C60.9612 16.3158 60.9839 17.547 62.0312 18.0206C62.6834 18.3168 63.4072 18.4614 64.1048 18.656C65.1801 18.9557 66.2798 19.1761 67.2536 19.7599C69.3709 21.029 69.9619 23.6931 68.53 25.6614C67.7624 26.7153 66.6574 27.2991 65.4108 27.628C63.3775 28.1653 61.4 28.0533 59.5467 26.9977C58.0466 26.1419 57.1882 24.8572 57.0535 23.1334C57.05 23.0904 57.0588 23.0456 57.0623 22.9836C58.225 22.9836 59.3772 22.9836 60.5591 22.9836C60.6797 24.0065 61.2986 24.6075 62.2935 24.8451C63.1047 25.038 63.9037 24.9674 64.6573 24.6006C65.3007 24.2872 65.5822 23.774 65.5192 23.142C65.4685 22.6375 65.1556 22.3189 64.7167 22.1604C64.0908 21.9348 63.4422 21.7678 62.797 21.5973C61.762 21.3235 60.7234 21.0721 59.7635 20.5693C57.4172 19.3397 57.0326 16.8048 57.8718 15.1465C58.4645 13.9737 59.4558 13.2195 60.6902 12.8096C62.8355 12.0984 64.9335 12.2276 66.8847 13.4158C68.1698 14.1993 68.7677 15.4082 68.8167 16.8858C68.8202 16.9305 68.8045 16.9736 68.7905 17.0339Z" fill="white"/>
<path d="M93.9995 12.7393C93.9995 17.6936 93.9995 22.6342 93.9995 27.5955C92.7563 27.5955 91.5272 27.5955 90.2754 27.5955C90.2754 22.6463 90.2754 17.7074 90.2754 12.7393C91.501 12.7393 92.7301 12.7393 93.9995 12.7393Z" fill="white"/>
<path d="M93.9997 12.7393H90.2773V22.7651L93.9997 18.2481V12.7393Z" fill="#D71920"/>
<path d="M92.1233 9.38444C93.283 9.38444 94.2231 8.45848 94.2231 7.31625C94.2231 6.17401 93.283 5.24805 92.1233 5.24805C90.9636 5.24805 90.0234 6.17401 90.0234 7.31625C90.0234 8.45848 90.9636 9.38444 92.1233 9.38444Z" fill="white"/>
<path d="M96.6035 25.996C96.6035 25.6362 96.6905 25.3022 96.8646 24.994C97.0405 24.6858 97.2829 24.4436 97.5917 24.2672C97.9024 24.0891 98.2374 24 98.5967 24C98.9561 24 99.2902 24.0891 99.599 24.2672C99.9078 24.4436 100.149 24.6858 100.323 24.994C100.499 25.3022 100.587 25.6362 100.587 25.996C100.587 26.3469 100.503 26.6756 100.334 26.982C100.166 27.2884 99.9265 27.5351 99.6158 27.7221C99.307 27.9074 98.9673 28 98.5967 28C98.228 28 97.8884 27.9083 97.5777 27.7248C97.2689 27.5395 97.0293 27.2937 96.859 26.9873C96.6887 26.6809 96.6035 26.3505 96.6035 25.996ZM96.9264 25.996C96.9264 26.3024 97.0012 26.5865 97.151 26.8484C97.3007 27.1084 97.5037 27.3124 97.7601 27.4603C98.0184 27.6081 98.2973 27.682 98.5967 27.682C98.8981 27.682 99.1779 27.6072 99.4361 27.4576C99.6944 27.3062 99.8965 27.1013 100.043 26.843C100.19 26.5847 100.264 26.3024 100.264 25.996C100.264 25.6914 100.19 25.4108 100.043 25.1543C99.8965 24.896 99.6944 24.6929 99.4361 24.5451C99.1779 24.3955 98.8981 24.3206 98.5967 24.3206C98.2973 24.3206 98.0184 24.3946 97.7601 24.5424C97.5019 24.6885 97.2979 24.8916 97.1481 25.1516C97.0003 25.4117 96.9264 25.6932 96.9264 25.996ZM98.1841 26.1964V27.0995H97.7882V24.831H98.5631C98.8494 24.831 99.0712 24.8898 99.2284 25.0073C99.3875 25.1231 99.467 25.2924 99.467 25.515C99.467 25.7341 99.3472 25.9016 99.1077 26.0174C99.336 26.1064 99.4511 26.2881 99.453 26.5625V26.7254C99.453 26.8786 99.4689 26.9891 99.5007 27.0568V27.0995H99.0936C99.0674 27.0354 99.0543 26.9214 99.0543 26.7575C99.0543 26.5918 99.0515 26.4939 99.0459 26.4636C99.016 26.2926 98.8934 26.2035 98.6782 26.1964H98.1841ZM98.1841 25.8544H98.622C98.7568 25.8508 98.8653 25.8196 98.9477 25.7609C99.03 25.7021 99.0712 25.6246 99.0712 25.5284C99.0712 25.3984 99.0347 25.3066 98.9617 25.2532C98.8887 25.198 98.7586 25.1703 98.5715 25.1703H98.1841V25.8544Z" fill="white"/>
</svg>
