<svg width="32" height="32" viewBox="0 0 32 32" fill="none" xmlns="http://www.w3.org/2000/svg">
<circle cx="16" cy="16" r="16" fill="#1A9FBD"/>
<path d="M22.2222 6.22229L17.7777 10.6667V20.4445L22.2222 16.4445V6.22229ZM23.9999 9.77785V21.7778C23.0222 21.4667 21.9555 21.3334 20.8888 21.3334C19.3777 21.3334 17.1999 21.9112 15.9999 22.6667V10.6667C14.7111 9.68896 12.8444 9.3334 11.1111 9.3334C9.37772 9.3334 7.51106 9.68896 6.22217 10.6667V23.689C6.22217 23.9112 6.44439 24.1334 6.66661 24.1334C6.7555 24.1334 6.79995 24.089 6.88883 24.089C8.08883 23.5112 9.82217 23.1112 11.1111 23.1112C12.8444 23.1112 14.7111 23.4667 15.9999 24.4445C17.1999 23.689 19.3777 23.1112 20.8888 23.1112C22.3555 23.1112 23.8666 23.3778 25.1111 24.0445C25.1999 24.089 25.2444 24.089 25.3333 24.089C25.5555 24.089 25.7777 23.8667 25.7777 23.6445V10.6667C25.2444 10.2667 24.6666 10.0001 23.9999 9.77785ZM14.2222 21.6978C13.1111 21.4134 11.9999 21.3334 11.1111 21.3334C10.1688 21.3334 9.04883 21.5023 7.99995 21.7778V11.6712C8.80883 11.3156 9.90217 11.1112 11.1111 11.1112C12.3199 11.1112 13.4133 11.3156 14.2222 11.6712V21.6978Z" fill="white"/>
</svg>
