<svg width="174" height="113" viewBox="0 0 174 113" fill="none" xmlns="http://www.w3.org/2000/svg"><circle opacity="0.21" cx="113" cy="52" r="86" fill="#EEFFF7"/><circle opacity="0.21" cx="99.5" cy="52.5" r="99.5" fill="#CFEEDF"/><g clip-path="url(#clip0_23554_232493)"><path d="M70 0H130V46.6667C130 63.2352 116.569 76.6667 100 76.6667C83.4315 76.6667 70 63.2352 70 46.6667V0Z" fill="#1A9FBD"/><g filter="url(#filter0_dddd_23554_232493)"><path d="M83.6967 34.7504L89.0867 36.9871C88.6172 38.2249 88.2264 39.4908 87.9161 40.7776C87.8208 41.1661 87.9344 41.5763 88.2162 41.8605L93.9686 47.6213C94.2528 47.9029 94.663 48.0165 95.0515 47.9212C96.3384 47.6097 97.6043 47.2174 98.8421 46.7465L101.079 52.1365C101.19 52.4056 101.428 52.6011 101.713 52.658C101.999 52.715 102.294 52.6255 102.499 52.4198L105.49 49.4291C106.656 48.2596 107.273 46.6506 107.185 45.0011L107.039 42.1688C113.296 37.4162 119.09 29.3648 120.822 16.1145C120.868 15.81 120.766 15.502 120.549 15.2844C120.331 15.0665 120.023 14.9651 119.718 15.0107C106.468 16.7352 98.4171 22.5084 93.6433 28.7772L90.8316 28.6482C89.1842 28.5611 87.5768 29.1753 86.4079 30.3395L83.4129 33.3386C83.211 33.5443 83.1241 33.8369 83.1807 34.1196C83.2374 34.4023 83.4303 34.6385 83.6962 34.7507L83.6967 34.7504ZM105.827 24.883C106.506 24.2086 107.424 23.8312 108.38 23.8333C109.337 23.8353 110.254 24.2165 110.929 24.8938C111.605 25.5708 111.984 26.4881 111.984 27.4445C111.984 28.401 111.605 29.3186 110.929 29.9956C110.254 30.6726 109.337 31.0538 108.38 31.0558C107.424 31.0579 106.506 30.6804 105.827 30.0064C105.145 29.3285 104.762 28.4063 104.762 27.4446C104.762 26.4829 105.145 25.561 105.827 24.8831V24.883ZM80.8352 53.9609C81.1435 48.2876 83.8967 45.1638 85.4753 43.8227H85.4756C85.6311 43.7022 85.8443 43.6876 86.0146 43.7864C86.1849 43.8855 86.2781 44.0778 86.2503 44.2728C86.098 45.1265 86.0727 45.9981 86.1753 46.8593C86.2613 47.5662 86.5818 48.224 87.0853 48.7275C87.5888 49.2313 88.2466 49.5515 88.9535 49.6375C89.8205 49.7491 90.6995 49.731 91.5609 49.5834C91.7623 49.548 91.9642 49.6427 92.0651 49.8205C92.1662 49.9981 92.1444 50.22 92.011 50.3749C90.6695 51.9328 87.5455 54.6861 81.8728 54.9985C81.593 55.0141 81.3199 54.9101 81.122 54.712C80.9239 54.5141 80.8198 54.241 80.8355 53.9612L80.8352 53.9609Z" fill="white" fill-opacity="0.1"/></g><path d="M83.6967 33.0834L89.0867 35.3201C88.6172 36.5579 88.2264 37.8238 87.9161 39.1106C87.8208 39.4991 87.9344 39.9093 88.2162 40.1936L93.9686 45.9543C94.2528 46.2359 94.663 46.3495 95.0515 46.2542C96.3384 45.9427 97.6043 45.5505 98.8421 45.0795L101.079 50.4695C101.19 50.7386 101.428 50.9341 101.713 50.991C101.999 51.048 102.294 50.9585 102.499 50.7528L105.49 47.7621C106.656 46.5926 107.273 44.9836 107.185 43.3341L107.039 40.5019C113.296 35.7493 119.09 27.6978 120.822 14.4475C120.868 14.143 120.766 13.8351 120.549 13.6174C120.331 13.3995 120.023 13.2981 119.718 13.3437C106.468 15.0682 98.4171 20.8414 93.6433 27.1102L90.8316 26.9812C89.1842 26.8941 87.5768 27.5083 86.4079 28.6725L83.4129 31.6716C83.211 31.8773 83.1241 32.1699 83.1807 32.4526C83.2374 32.7353 83.4303 32.9715 83.6962 33.0837L83.6967 33.0834ZM105.827 23.216C106.506 22.5416 107.424 22.1642 108.38 22.1663C109.337 22.1683 110.254 22.5495 110.929 23.2268C111.605 23.9038 111.984 24.8211 111.984 25.7775C111.984 26.734 111.605 27.6516 110.929 28.3286C110.254 29.0056 109.337 29.3868 108.38 29.3888C107.424 29.3909 106.506 29.0134 105.827 28.3394C105.145 27.6615 104.762 26.7393 104.762 25.7776C104.762 24.8159 105.145 23.894 105.827 23.2161V23.216ZM80.8352 52.2939C81.1435 46.6206 83.8967 43.4968 85.4753 42.1557H85.4756C85.6311 42.0352 85.8443 42.0206 86.0146 42.1194C86.1849 42.2185 86.2781 42.4108 86.2503 42.6058C86.098 43.4595 86.0727 44.3311 86.1753 45.1923C86.2613 45.8992 86.5818 46.557 87.0853 47.0605C87.5888 47.5643 88.2466 47.8845 88.9535 47.9705C89.8205 48.0821 90.6995 48.064 91.5609 47.9164C91.7623 47.881 91.9642 47.9757 92.0651 48.1535C92.1662 48.3311 92.1444 48.553 92.011 48.7079C90.6695 50.2658 87.5455 53.0191 81.8728 53.3315C81.593 53.3471 81.3199 53.2431 81.122 53.045C80.9239 52.8471 80.8198 52.574 80.8355 52.2942L80.8352 52.2939Z" fill="white"/></g><defs><filter id="filter0_dddd_23554_232493" x="-100.606" y="-166.44" width="402.879" height="402.88" filterUnits="userSpaceOnUse" color-interpolation-filters="sRGB"><feFlood flood-opacity="0" result="BackgroundImageFix"/><feColorMatrix in="SourceAlpha" type="matrix" values="0 0 0 0 0 0 0 0 0 0 0 0 0 0 0 0 0 0 127 0" result="hardAlpha"/><feOffset/><feGaussianBlur stdDeviation="15.12"/><feColorMatrix type="matrix" values="0 0 0 0 1 0 0 0 0 1 0 0 0 0 1 0 0 0 1 0"/><feBlend mode="normal" in2="BackgroundImageFix" result="effect1_dropShadow_23554_232493"/><feColorMatrix in="SourceAlpha" type="matrix" values="0 0 0 0 0 0 0 0 0 0 0 0 0 0 0 0 0 0 127 0" result="hardAlpha"/><feOffset/><feGaussianBlur stdDeviation="30.24"/><feColorMatrix type="matrix" values="0 0 0 0 1 0 0 0 0 1 0 0 0 0 1 0 0 0 1 0"/><feBlend mode="normal" in2="effect1_dropShadow_23554_232493" result="effect2_dropShadow_23554_232493"/><feColorMatrix in="SourceAlpha" type="matrix" values="0 0 0 0 0 0 0 0 0 0 0 0 0 0 0 0 0 0 127 0" result="hardAlpha"/><feOffset/><feGaussianBlur stdDeviation="51.84"/><feColorMatrix type="matrix" values="0 0 0 0 1 0 0 0 0 1 0 0 0 0 1 0 0 0 1 0"/><feBlend mode="normal" in2="effect2_dropShadow_23554_232493" result="effect3_dropShadow_23554_232493"/><feColorMatrix in="SourceAlpha" type="matrix" values="0 0 0 0 0 0 0 0 0 0 0 0 0 0 0 0 0 0 127 0" result="hardAlpha"/><feOffset/><feGaussianBlur stdDeviation="90.72"/><feColorMatrix type="matrix" values="0 0 0 0 1 0 0 0 0 1 0 0 0 0 1 0 0 0 1 0"/><feBlend mode="normal" in2="effect3_dropShadow_23554_232493" result="effect4_dropShadow_23554_232493"/><feBlend mode="normal" in="SourceGraphic" in2="effect4_dropShadow_23554_232493" result="shape"/></filter><clipPath id="clip0_23554_232493"><rect width="60" height="205" fill="white" transform="translate(70)"/></clipPath></defs></svg>