<svg width="147" height="47" viewBox="0 0 147 47" fill="none" xmlns="http://www.w3.org/2000/svg">
<g clip-path="url(#clip0_5312_7797)">
<path d="M18.1585 19.508L12.8635 14.3156L16.2518 11.0301L21.5517 16.2224L18.1585 19.508Z" fill="url(#paint0_linear_5312_7797)"/>
<path d="M145.185 44.1447C145.263 44.13 145.371 44.1203 145.479 44.1203C145.64 44.1203 145.747 44.1496 145.821 44.218C145.879 44.2718 145.914 44.35 145.914 44.4429C145.914 44.5994 145.816 44.7021 145.689 44.7461C145.782 44.7803 145.835 44.8683 145.865 44.9905C145.904 45.1568 145.933 45.2692 145.958 45.3132H145.801C145.782 45.279 145.757 45.1763 145.723 45.0296C145.689 44.8683 145.625 44.8047 145.488 44.7999H145.347V45.3132H145.195V44.1496L145.185 44.1447ZM145.337 44.6825H145.493C145.655 44.6825 145.762 44.5945 145.762 44.4576C145.762 44.306 145.65 44.2376 145.488 44.2376C145.415 44.2376 145.361 44.2425 145.337 44.2523V44.6825Z" fill="black"/>
<path d="M145.532 45.8462C144.902 45.8462 144.388 45.3328 144.388 44.7021C144.388 44.0714 144.902 43.558 145.532 43.558C146.163 43.558 146.676 44.0714 146.676 44.7021C146.676 45.3328 146.163 45.8462 145.532 45.8462ZM145.532 43.7193C144.99 43.7193 144.55 44.1594 144.55 44.7021C144.55 45.2448 144.99 45.6848 145.532 45.6848C146.075 45.6848 146.515 45.2448 146.515 44.7021C146.515 44.1594 146.075 43.7193 145.532 43.7193Z" fill="black"/>
<path d="M75.3085 38.2825C75.6556 38.1016 76.0467 38.0087 76.4917 38.0087C77.005 38.0087 77.4744 38.1359 77.89 38.3901C78.3056 38.6443 78.638 39.0061 78.8825 39.4755C79.127 39.9449 79.2492 40.4876 79.2492 41.1036C79.2492 41.7197 79.127 42.2672 78.8825 42.7415C78.638 43.2157 78.3105 43.5873 77.89 43.8465C77.4744 44.1056 77.005 44.2376 76.4917 44.2376C76.0419 44.2376 75.6458 44.1496 75.3085 43.9687C74.9711 43.7878 74.7022 43.558 74.4969 43.2793V44.1398H72.9714V36.0775H74.4969V38.9866C74.6924 38.6981 74.9613 38.4585 75.3085 38.2776V38.2825ZM77.4646 40.16C77.3179 39.896 77.1175 39.6955 76.8779 39.5537C76.6335 39.4168 76.3694 39.3484 76.0859 39.3484C75.8023 39.3484 75.548 39.4168 75.3085 39.5586C75.064 39.7004 74.8685 39.9058 74.7218 40.1747C74.5751 40.4436 74.4969 40.7614 74.4969 41.1232C74.4969 41.485 74.5702 41.8028 74.7218 42.0717C74.8685 42.3406 75.0689 42.5459 75.3085 42.6877C75.5529 42.8295 75.8121 42.8979 76.0859 42.8979C76.3597 42.8979 76.6335 42.8246 76.8779 42.6779C77.1224 42.5313 77.3179 42.3259 77.4646 42.057C77.6113 41.7881 77.6895 41.4703 77.6895 41.0987C77.6895 40.7271 77.6162 40.424 77.4646 40.1551V40.16Z" fill="black"/>
<path d="M86.1283 38.1114L82.393 47H80.7698L82.0752 43.9931L79.655 38.1114H81.3663L82.9259 42.3259L84.5051 38.1114H86.1283Z" fill="black"/>
<path d="M53.8302 6.21419H48.0219V24.0794H51.8452V17.9727H53.8302C57.9518 17.9727 60.7045 15.9388 60.7045 12.091C60.7045 8.24321 57.9518 6.2093 53.8302 6.2093V6.21419ZM54.0307 14.7508H51.8452V9.41662H53.928C55.6392 9.41662 56.8322 10.3113 56.8322 12.0959C56.8322 13.8805 55.693 14.7508 54.0307 14.7508Z" fill="black"/>
<path d="M66.3124 13.7094C66.288 13.5627 66.288 13.2644 66.288 12.8929L66.2146 11.6754H62.8411V24.0843H66.5373V18.799C66.5373 16.5402 68.0774 14.8779 69.9598 14.8779C70.4291 14.8779 70.7274 15.0001 70.7763 15.0246V11.4016C70.7274 11.3772 70.3802 11.3283 69.9842 11.3283C68.3708 11.3283 67.08 12.3697 66.3124 13.7094Z" fill="black"/>
<path d="M78.8924 24.4265C81.1023 24.4265 82.7647 23.9278 83.5323 23.5318V20.3782C82.838 20.7743 80.9997 21.2974 79.2395 21.2974C77.2301 21.2974 75.9393 20.3293 75.7926 18.6426H83.9332C83.9576 18.3932 84.031 17.7967 84.031 17.1269C84.031 14.0516 82.0704 11.3185 78.247 11.3185C74.6975 11.3185 71.9448 14.0956 71.9448 17.8701C71.9448 21.6445 74.6241 24.4216 78.8924 24.4216V24.4265ZM78.2226 14.2521C79.7382 14.2521 80.5303 15.3912 80.4814 16.7358H75.7926C75.8904 15.3961 76.7363 14.2521 78.2226 14.2521Z" fill="black"/>
<path d="M94.1271 24.4265C97.2269 24.4265 99.8084 21.9721 99.8084 17.875C99.8084 13.7778 97.2269 11.3234 94.0244 11.3234C92.2154 11.3234 90.5775 12.3404 90.0055 13.5578H89.9566C89.9322 13.5578 90.0299 13.2107 90.0055 12.712L89.9322 11.6706H86.5586V29.5357H90.2548V23.5562C90.2548 22.862 90.1815 22.5148 90.1815 22.5148H90.2304C90.8758 23.5318 92.3132 24.4265 94.1271 24.4265ZM93.3595 14.4525C95.0707 14.4525 96.3126 15.8411 96.3126 17.875C96.3126 19.9089 95.0707 21.2974 93.3595 21.2974C91.8732 21.2974 90.382 20.1582 90.382 17.875C90.382 15.5917 91.8732 14.4525 93.3595 14.4525Z" fill="black"/>
<path d="M105.988 19.7133V6.21419H102.292V20.5298C102.292 23.3607 104.003 24.4265 106.115 24.4265C107.284 24.4265 108.149 24.2016 108.472 24.0549V21.0041C108.247 21.1018 107.729 21.2534 107.23 21.2534C106.487 21.2534 105.988 20.8574 105.988 19.7133Z" fill="black"/>
<path d="M116.608 24.4265C118.818 24.4265 120.48 23.9278 121.248 23.5318V20.3782C120.553 20.7743 118.715 21.2974 116.955 21.2974C114.945 21.2974 113.655 20.3293 113.508 18.6426H121.649C121.673 18.3932 121.746 17.7967 121.746 17.1269C121.746 14.0516 119.786 11.3185 115.962 11.3185C112.413 11.3185 109.66 14.0956 109.66 17.8701C109.66 21.6445 112.339 24.4216 116.608 24.4216V24.4265ZM115.938 14.2521C117.454 14.2521 118.246 15.3912 118.197 16.7358H113.508C113.606 15.3961 114.452 14.2521 115.938 14.2521Z" fill="black"/>
<path d="M123.731 20.6569C123.731 23.1895 125.54 24.4265 127.677 24.4265C129.96 24.4265 131.202 22.8131 131.525 22.0699H131.574C131.574 22.0699 131.5 22.417 131.525 22.9402L131.598 24.0794H134.947V16.2615C134.947 13.1618 133.035 11.3234 129.217 11.3234C127.032 11.3234 125.369 11.8466 124.675 12.1693V15.4939C125.491 14.9708 127.056 14.4281 128.621 14.4281C130.185 14.4281 131.275 14.9757 131.275 16.462V16.7602C126.807 16.1393 123.731 17.6305 123.731 20.6569ZM128.645 21.6005C127.775 21.6005 127.232 21.0774 127.232 20.2853C127.232 19.1168 128.401 18.2514 131.178 18.6964C131.178 20.2853 130.087 21.6005 128.645 21.6005Z" fill="black"/>
<path d="M138.419 24.0794H142.115V14.5747H144.867V11.6706H141.963V10.9763C141.963 9.68553 142.78 8.99126 144.046 8.99126C144.642 8.99126 145.112 9.08905 145.312 9.16728V6.01373C145.087 5.96484 144.442 5.86706 143.674 5.86706C140.35 5.86706 138.536 7.72985 138.536 10.5558V11.6706H136.776V14.5747H138.414V24.0794H138.419Z" fill="black"/>
<path d="M22.9303 11.3479C22.505 12.1937 21.977 13.0444 21.3414 13.8903L17.3126 10.0767V9.54863C17.3126 8.7028 16.9948 7.95964 16.2517 7.21648C15.5085 6.47332 14.7703 6.15552 13.812 6.15552C12.9661 6.15552 12.1154 6.47332 11.3722 7.21648L8.51206 10.0767L4.80115 6.47332L7.7689 3.50556C10.1059 1.28097 12.4381 0.00977739 14.9805 0.00977739C17.4202 -0.0977853 19.5372 0.645375 21.2338 2.34193C22.6125 3.61313 23.3508 5.41725 23.6735 7.53428C23.7811 8.69791 23.5659 9.97399 22.9303 11.3479Z" fill="black"/>
<path d="M3.83815 7.44208L0.00012207 11.3957L19.6315 30.453L23.4695 26.4994L3.83815 7.44208Z" fill="black"/>
<path d="M107.25 37.7936C107.92 38.4634 108.257 39.4022 108.257 40.6049V45.8413H106.003V40.908C106.003 40.2089 105.827 39.676 105.47 39.3044C105.113 38.9328 104.634 38.747 104.018 38.747C103.402 38.747 102.918 38.9328 102.561 39.3044C102.199 39.676 102.023 40.2089 102.023 40.908V45.8413H99.7693V40.908C99.7693 40.2089 99.5933 39.676 99.2364 39.3044C98.8795 38.9328 98.4003 38.747 97.7843 38.747C97.1682 38.747 96.6695 38.9328 96.3077 39.3044C95.9459 39.676 95.7699 40.2089 95.7699 40.908V45.8413H93.516V36.9136H95.7699V37.9941C96.0584 37.6176 96.4348 37.3243 96.8895 37.1091C97.3442 36.894 97.8478 36.7864 98.3954 36.7864C99.0946 36.7864 99.7155 36.9331 100.263 37.2314C100.811 37.5247 101.236 37.9501 101.534 38.4977C101.823 37.9843 102.248 37.5687 102.801 37.2558C103.353 36.9429 103.954 36.7864 104.6 36.7864C105.695 36.7864 106.58 37.1238 107.25 37.7936Z" fill="black"/>
<path d="M110.359 38.9475C110.721 38.2483 111.21 37.7105 111.826 37.334C112.442 36.9576 113.132 36.7718 113.899 36.7718C114.564 36.7718 115.146 36.9087 115.649 37.1727C116.148 37.4416 116.549 37.7789 116.852 38.1896V36.9184H119.126V45.8461H116.852V44.5407C116.564 44.9612 116.163 45.3083 115.649 45.5821C115.141 45.8559 114.549 45.9928 113.884 45.9928C113.132 45.9928 112.447 45.7973 111.831 45.411C111.215 45.0248 110.726 44.4772 110.364 43.7731C110.002 43.0691 109.826 42.2624 109.826 41.3481C109.826 40.4338 110.007 39.6466 110.364 38.9475H110.359ZM116.525 39.9693C116.31 39.5782 116.021 39.275 115.654 39.0648C115.288 38.8546 114.897 38.7519 114.476 38.7519C114.056 38.7519 113.669 38.8546 113.317 39.0599C112.96 39.2653 112.677 39.5635 112.457 39.9546C112.237 40.3458 112.124 40.8103 112.124 41.3481C112.124 41.8859 112.232 42.3552 112.457 42.7562C112.677 43.1571 112.965 43.47 113.327 43.6851C113.689 43.9002 114.07 44.0078 114.481 44.0078C114.892 44.0078 115.293 43.9051 115.659 43.6949C116.026 43.4847 116.314 43.1864 116.53 42.7904C116.745 42.3992 116.852 41.9299 116.852 41.3823C116.852 40.8347 116.745 40.3653 116.53 39.9742L116.525 39.9693Z" fill="black"/>
<path d="M122.773 45.5919C122.191 45.3279 121.732 44.971 121.394 44.5212C121.057 44.0714 120.871 43.5727 120.837 43.0202H123.11C123.154 43.3624 123.321 43.6509 123.619 43.8758C123.912 44.1007 124.284 44.2131 124.724 44.2131C125.164 44.2131 125.491 44.1251 125.731 43.954C125.971 43.7829 126.093 43.5629 126.093 43.294C126.093 43.0055 125.946 42.7855 125.648 42.6437C125.355 42.497 124.88 42.3406 124.24 42.1695C123.575 42.0081 123.027 41.8419 122.602 41.6708C122.177 41.4996 121.815 41.2356 121.507 40.8787C121.199 40.5218 121.047 40.0475 121.047 39.4462C121.047 38.9524 121.189 38.5025 121.473 38.0919C121.756 37.6861 122.167 37.3634 122.695 37.1238C123.228 36.8891 123.854 36.7669 124.572 36.7669C125.638 36.7669 126.484 37.0309 127.12 37.5638C127.755 38.0967 128.102 38.8106 128.166 39.7151H126.005C125.971 39.3582 125.824 39.0795 125.56 38.8692C125.296 38.659 124.944 38.5563 124.504 38.5563C124.093 38.5563 123.78 38.6297 123.56 38.7812C123.34 38.9328 123.228 39.143 123.228 39.4119C123.228 39.7151 123.379 39.94 123.678 40.0964C123.976 40.2529 124.445 40.4093 125.081 40.5707C125.726 40.732 126.259 40.8983 126.675 41.0694C127.095 41.2405 127.457 41.5094 127.76 41.8663C128.068 42.2281 128.225 42.7024 128.234 43.294C128.234 43.8073 128.093 44.2718 127.809 44.6776C127.525 45.0883 127.115 45.4061 126.582 45.6359C126.049 45.8657 125.428 45.983 124.719 45.983C124.01 45.983 123.335 45.851 122.753 45.587L122.773 45.5919Z" fill="black"/>
<path d="M130.068 38.9475C130.43 38.2483 130.918 37.7105 131.534 37.334C132.151 36.9576 132.84 36.7718 133.607 36.7718C134.272 36.7718 134.854 36.9087 135.358 37.1727C135.857 37.4416 136.257 37.7789 136.561 38.1896V36.9184H138.834V45.8461H136.561V44.5407C136.272 44.9612 135.871 45.3083 135.358 45.5821C134.849 45.8559 134.258 45.9928 133.593 45.9928C132.84 45.9928 132.155 45.7973 131.539 45.411C130.923 45.0248 130.434 44.4772 130.073 43.7731C129.711 43.0691 129.535 42.2624 129.535 41.3481C129.535 40.4338 129.716 39.6466 130.073 38.9475H130.068ZM136.233 39.9693C136.018 39.5782 135.729 39.275 135.363 39.0648C134.996 38.8546 134.605 38.7519 134.184 38.7519C133.764 38.7519 133.378 38.8546 133.026 39.0599C132.669 39.2653 132.385 39.5635 132.165 39.9546C131.945 40.3458 131.833 40.8103 131.833 41.3481C131.833 41.8859 131.94 42.3552 132.165 42.7562C132.385 43.1571 132.674 43.47 133.035 43.6851C133.397 43.9002 133.779 44.0078 134.189 44.0078C134.6 44.0078 135.001 43.9051 135.368 43.6949C135.734 43.4847 136.023 43.1864 136.238 42.7904C136.453 42.3992 136.561 41.9299 136.561 41.3823C136.561 40.8347 136.453 40.3653 136.238 39.9742L136.233 39.9693Z" fill="black"/>
<path d="M141.186 35.4712C140.922 35.217 140.79 34.9041 140.79 34.5276C140.79 34.1512 140.922 33.8382 141.186 33.584C141.45 33.3298 141.777 33.2075 142.178 33.2075C142.579 33.2075 142.907 33.3347 143.171 33.584C143.435 33.8382 143.567 34.1512 143.567 34.5276C143.567 34.9041 143.435 35.217 143.171 35.4712C142.907 35.7255 142.579 35.8477 142.178 35.8477C141.777 35.8477 141.45 35.7206 141.186 35.4712ZM143.288 36.9136V45.8413H141.034V36.9136H143.288Z" fill="black"/>
<path d="M143.288 36.9184H141.034V43.0104L143.288 40.2676V36.9184Z" fill="#ED0331"/>
<path d="M41.6855 2.86996C41.6855 2.86996 22.1873 22.0503 22.0797 22.1579C21.5517 22.6859 20.8085 22.1579 20.8085 22.1579L18.1586 19.508L21.5517 16.2224L27.4725 10.3602C30.4745 7.3876 34.1512 5.18745 38.1848 3.94559L41.6855 2.86996Z" fill="#16BBE5"/>
</g>
<defs>
<linearGradient id="paint0_linear_5312_7797" x1="14.6383" y1="12.7608" x2="19.7622" y2="17.7625" gradientUnits="userSpaceOnUse">
<stop stop-color="#15CFFF"/>
<stop offset="1" stop-color="#1196B7"/>
</linearGradient>
<clipPath id="clip0_5312_7797">
<rect width="146.676" height="47" fill="white"/>
</clipPath>
</defs>
</svg>
