<svg xmlns="http://www.w3.org/2000/svg" viewBox="0 0 12 10" class="w-[12px] h-[10px]" style="color:#1A9FBD"><path fill="currentColor" d="M0.519531 9.20006V6.36006C0.519531 5.26676 0.692861 4.25336 1.03953 3.32006C1.41286 2.38673 2.03953 1.46673 2.91953 0.560059L4.47953 1.72006C3.89286 2.36006 3.4662 2.96006 3.19953 3.52006C2.93286 4.05336 2.77286 4.58676 2.71953 5.12006H4.59953V9.20006H0.519531ZM7.15953 9.20006V6.36006C7.15953 5.26676 7.33283 4.25336 7.67953 3.32006C8.05283 2.38673 8.67953 1.46673 9.55953 0.560059L11.1195 1.72006C10.5328 2.36006 10.1062 2.96006 9.83953 3.52006C9.57283 4.05336 9.41283 4.58676 9.35953 5.12006H11.2395V9.20006H7.15953Z"/></svg>