<svg width="32" height="32" viewBox="0 0 32 32" fill="none" xmlns="http://www.w3.org/2000/svg">
<circle cx="16" cy="16" r="16" fill="#6E71CC"/>
<g clip-path="url(#clip0_17768_200630)">
<path d="M8.88905 10.6667H23.1113V19.5556H8.88905V10.6667ZM23.1113 21.3334C23.5828 21.3334 24.035 21.1461 24.3684 20.8127C24.7017 20.4793 24.889 20.0271 24.889 19.5556V10.6667C24.889 9.68003 24.0891 8.88892 23.1113 8.88892H8.88905C7.90238 8.88892 7.11127 9.68003 7.11127 10.6667V19.5556C7.11127 20.0271 7.29857 20.4793 7.63197 20.8127C7.96537 21.1461 8.41756 21.3334 8.88905 21.3334H5.3335V23.1111H26.6668V21.3334H23.1113Z" fill="white"/>
</g>
<defs>
<clipPath id="clip0_17768_200630">
<rect width="21.3333" height="21.3333" fill="white" transform="translate(5.3335 5.33337)"/>
</clipPath>
</defs>
</svg>
