<svg width="410" height="230" viewBox="0 0 410 230" fill="none" xmlns="http://www.w3.org/2000/svg">
<path d="M0 16C0 7.16345 7.16344 0 16 0H394C402.837 0 410 7.16344 410 16V230H0V16Z" fill="#CFD0EE"/>
<path d="M215.998 149.999H135.499C133.57 149.999 131.998 148.428 131.998 146.499V72.999H250.999V111.498C250.999 113.43 252.567 114.998 254.5 114.998C256.432 114.998 258 113.43 258 111.498L257.999 55.5C257.999 49.7109 253.288 45 247.499 45H135.5C129.711 45 125 49.7109 125 55.5V146.499C125 152.288 129.711 156.999 135.5 156.999H215.999C217.931 156.999 219.499 155.431 219.499 153.499C219.499 151.566 217.931 149.998 215.999 149.998L215.998 149.999ZM135.499 51.9984H247.498C249.427 51.9984 250.998 53.5699 250.998 55.4988V65.9988H131.997V55.4988C131.997 53.5699 133.569 51.9984 135.498 51.9984H135.499Z" fill="#6E71CC"/>
<path d="M142.498 58.9979C142.498 60.9314 140.931 62.4983 138.997 62.4983C137.065 62.4983 135.498 60.9314 135.498 58.9979C135.498 57.0654 137.065 55.4987 138.997 55.4987C140.931 55.4987 142.498 57.0655 142.498 58.9979Z" fill="#6E71CC"/>
<path d="M152.998 58.9979C152.998 60.9314 151.431 62.4983 149.497 62.4983C147.565 62.4983 145.998 60.9314 145.998 58.9979C145.998 57.0654 147.565 55.4987 149.497 55.4987C151.431 55.4987 152.998 57.0655 152.998 58.9979Z" fill="#6E71CC"/>
<path d="M163.498 58.9979C163.498 60.9314 161.931 62.4983 159.997 62.4983C158.065 62.4983 156.498 60.9314 156.498 58.9979C156.498 57.0654 158.065 55.4987 159.997 55.4987C161.931 55.4987 163.498 57.0655 163.498 58.9979Z" fill="#6E71CC"/>
<path d="M254.245 142.997C248.456 142.997 243.745 147.708 243.745 153.497C243.745 159.286 248.456 163.997 254.245 163.997C260.034 163.997 264.745 159.286 264.745 153.497C264.745 147.708 260.034 142.997 254.245 142.997ZM254.245 156.998C252.316 156.998 250.744 155.426 250.744 153.497C250.744 151.568 252.316 149.997 254.245 149.997C256.174 149.997 257.745 151.568 257.745 153.497C257.745 155.426 256.174 156.998 254.245 156.998Z" fill="#6E71CC"/>
<path d="M284.247 158.405L279.162 155.469C279.218 154.804 279.246 154.146 279.246 153.499C279.246 152.851 279.218 152.193 279.162 151.529L284.247 148.592C285.924 147.626 286.494 145.484 285.528 143.811L278.529 131.687C277.56 130.013 275.421 129.433 273.747 130.406L268.654 133.346C267.576 132.601 266.438 131.946 265.249 131.382V125.498C265.249 123.566 263.681 121.998 261.748 121.998H247.748C245.815 121.998 244.247 123.566 244.247 125.498V131.382C243.058 131.946 241.92 132.599 240.842 133.346L235.749 130.406C234.065 129.437 231.934 130.013 230.967 131.687L223.968 143.811C223.002 145.484 223.575 147.625 225.249 148.592L230.334 151.529C230.278 152.193 230.25 152.852 230.25 153.499C230.25 154.147 230.278 154.804 230.334 155.469L225.249 158.405C223.572 159.371 223.002 161.513 223.968 163.187L230.967 175.311C231.933 176.984 234.065 177.554 235.749 176.592L240.842 173.652C241.92 174.397 243.058 175.052 244.247 175.616V181.5C244.247 183.432 245.815 185 247.748 185H261.748C263.681 185 265.249 183.432 265.249 181.5V175.616C266.438 175.052 267.576 174.398 268.654 173.652L273.747 176.592C275.421 177.554 277.558 176.981 278.529 175.311L285.528 163.187C286.494 161.513 285.921 159.372 284.247 158.405ZM271.941 150.31C272.148 151.406 272.25 152.481 272.25 153.503C272.25 154.525 272.148 155.596 271.941 156.695C271.672 158.154 272.347 159.625 273.632 160.366L277.716 162.722L274.216 168.784L270.132 166.425C268.848 165.687 267.238 165.833 266.107 166.796C264.479 168.186 262.62 169.261 260.58 169.981C259.183 170.478 258.246 171.798 258.246 173.281V178.003H251.246V173.281C251.246 171.798 250.312 170.478 248.912 169.981C246.872 169.261 245.013 168.19 243.385 166.796C242.254 165.827 240.644 165.679 239.36 166.425L235.276 168.784L231.775 162.722L235.859 160.366C237.144 159.624 237.823 158.154 237.55 156.695C237.344 155.599 237.242 154.525 237.242 153.503C237.242 152.467 237.344 151.424 237.55 150.31C237.82 148.851 237.145 147.381 235.859 146.639L231.775 144.283L235.276 138.221L239.36 140.58C240.648 141.319 242.258 141.176 243.385 140.209C245.013 138.819 246.871 137.744 248.912 137.024C250.309 136.527 251.246 135.207 251.246 133.724V129.002H258.246V133.724C258.246 135.207 259.18 136.527 260.58 137.024C262.62 137.744 264.479 138.815 266.107 140.209C267.234 141.174 268.844 141.319 270.132 140.58L274.216 138.221L277.716 144.283L273.632 146.639C272.348 147.381 271.668 148.851 271.941 150.31Z" fill="#6E71CC"/>
<path d="M172.972 88.0253C171.603 86.6566 169.391 86.6566 168.023 88.0253L147.023 109.025C145.654 110.394 145.654 112.606 147.023 113.974L168.023 134.974C168.705 135.656 169.601 136 170.498 136C171.394 136 172.29 135.656 172.973 134.974C174.342 133.605 174.342 131.394 172.973 130.025L154.448 111.5L172.973 92.9753C174.342 91.6066 174.342 89.3951 172.973 88.0265L172.972 88.0253Z" fill="#6E71CC"/>
<path d="M210.025 134.972C210.707 135.654 211.603 135.998 212.5 135.998C213.396 135.998 214.291 135.654 214.975 134.972L235.975 113.972C237.343 112.604 237.343 110.392 235.975 109.024L214.975 88.0235C213.606 86.6548 211.394 86.6548 210.026 88.0235C208.657 89.3923 208.657 91.6037 210.026 92.9723L228.551 111.497L210.026 130.022C208.657 131.391 208.657 133.602 210.026 134.971L210.025 134.972Z" fill="#6E71CC"/>
<path d="M198.718 82.2714L177.718 138.272C177.039 140.082 177.956 142.097 179.765 142.781C180.17 142.931 180.584 143.004 180.993 143.004C182.411 143.004 183.745 142.136 184.273 140.733L205.273 84.7323C205.952 82.9229 205.035 80.9073 203.226 80.2242C201.413 79.5562 199.401 80.462 198.718 82.2714Z" fill="#6E71CC"/>
</svg>
