<svg width="32" height="32" viewBox="0 0 32 32" fill="none" xmlns="http://www.w3.org/2000/svg"><g clip-path="url(#clip0_27143_251903)"><circle cx="16" cy="16" r="16" fill="url(#paint0_linear_27143_251903)"/><path d="M23.9847 9.38147C24.1272 8.46093 23.2519 7.73435 22.4334 8.09371L6.13123 15.2512C5.54427 15.509 5.5872 16.398 6.19597 16.5919L9.55789 17.6625C10.1995 17.8668 10.8943 17.7612 11.4546 17.3741L19.0343 12.1375C19.2628 11.9795 19.512 12.3045 19.3167 12.5059L13.8607 18.131C13.3314 18.6767 13.4365 19.6013 14.0731 20.0005L20.1817 23.8312C20.8668 24.2608 21.7482 23.8292 21.8764 23.0013L23.9847 9.38147Z" fill="white"/></g><defs><linearGradient id="paint0_linear_27143_251903" x1="16" y1="0" x2="16" y2="32" gradientUnits="userSpaceOnUse"><stop stop-color="#37BBFE"/><stop offset="1" stop-color="#007DBB"/></linearGradient><clipPath id="clip0_27143_251903"><rect width="32" height="32" fill="white"/></clipPath></defs></svg>