<svg width="20" height="20" viewBox="0 0 20 20" fill="none" xmlns="http://www.w3.org/2000/svg">
<path d="M19.9608 3.80735C19.2121 4.13702 18.4188 4.35463 17.6067 4.45318C18.4618 3.93922 19.102 3.13322 19.4092 2.18401C18.6167 2.64651 17.7383 2.98318 16.8033 3.17068C16.1865 2.51104 15.3691 2.07353 14.478 1.9261C13.587 1.77867 12.6722 1.92956 11.8758 2.35534C11.0793 2.78112 10.4457 3.45797 10.0734 4.28078C9.70104 5.1036 9.6108 6.02632 9.81667 6.90568C6.40833 6.74485 3.38917 5.10735 1.36667 2.63401C0.998995 3.25886 0.80722 3.97154 0.811667 4.69652C0.811667 6.12152 1.53667 7.37402 2.635 8.10985C1.98405 8.08913 1.34748 7.91313 0.778333 7.59652V7.64652C0.777964 8.59351 1.10522 9.51147 1.70459 10.2446C2.30395 10.9778 3.13851 11.4811 4.06667 11.669C3.46525 11.8302 2.83534 11.8544 2.22333 11.7398C2.48677 12.5549 2.99805 13.2673 3.68585 13.7778C4.37364 14.2882 5.20363 14.5713 6.06 14.5874C4.60961 15.7256 2.81873 16.3434 0.975 16.3415C0.65 16.3415 0.325833 16.3224 0 16.2857C1.87976 17.4893 4.06543 18.1282 6.2975 18.1265C13.8417 18.1265 17.9625 11.8799 17.9625 6.47235C17.9625 6.29735 17.9625 6.12235 17.95 5.94735C18.755 5.36807 19.4494 4.64886 20 3.82402L19.9608 3.80735Z" 
fill="white"/>
</svg>
