<svg id="Layer_1" data-name="Layer 1" xmlns="http://www.w3.org/2000/svg" viewBox="0 0 350 120"><defs><style>.cls-1{fill:#5937b9;fill-rule:evenodd;}</style></defs><path class="cls-1" d="M28.58,30.16v59.6H175V30.16Zm34.8,31.23a12.69,12.69,0,0,1-1,4.29A9.33,9.33,0,0,1,60.15,69a9.08,9.08,0,0,1-3.37,2.15,13.62,13.62,0,0,1-4.56.83,11.21,11.21,0,0,1-4.56-.83,8.77,8.77,0,0,1-5.28-5.61,12.38,12.38,0,0,1-.6-4.29V45.65h4.8V61.27a8.86,8.86,0,0,0,.24,2.62,5.48,5.48,0,0,0,1.08,2,5,5,0,0,0,1.8,1.31,6.85,6.85,0,0,0,5,0,7,7,0,0,0,1.93-1.31,8.73,8.73,0,0,0,1.43-2,9,9,0,0,0,.61-2.62V45.65h4.8V61.39ZM84,71.88A1.68,1.68,0,0,1,83,71.52a2,2,0,0,1-.72-.71l-5.52-8.35a6.77,6.77,0,0,0-.72-1,1.18,1.18,0,0,0-1-.36H73V71.88h-4.8V45.65H76a16.8,16.8,0,0,1,4.56.6,9.48,9.48,0,0,1,3.12,1.55,5.72,5.72,0,0,1,1.8,2.38,8.29,8.29,0,0,1,.6,3,9.07,9.07,0,0,1-.36,2.51,9,9,0,0,1-1.08,2.14,8,8,0,0,1-1.8,1.67,14.12,14.12,0,0,1-2.4,1.19A4.91,4.91,0,0,1,82,62.22l6.48,9.66Zm26.16-4.77a5.91,5.91,0,0,1-1.8,2.38,8.13,8.13,0,0,1-3,1.68,14.43,14.43,0,0,1-4.08.59H91V45.65h9.48a15,15,0,0,1,4.32.6,10,10,0,0,1,3,1.43,5.83,5.83,0,0,1,1.68,2.15,7.11,7.11,0,0,1,.6,2.86,9.27,9.27,0,0,1-.24,1.79A6.65,6.65,0,0,1,109,56a5.15,5.15,0,0,1-1.44,1.31,10.82,10.82,0,0,1-2,.95q5.4,1.24,5.4,5.72A10.72,10.72,0,0,1,110.19,67.11Zm23.89,4.77a3.77,3.77,0,0,1-1.09-.36c-.24-.24-.47-.24-.6-.47l-1.92-5.13h-10.8l-1.92,5a1.58,1.58,0,0,1-.6.71,1.29,1.29,0,0,1-1,.24h-3.72l10.2-26.23h4.92l10.2,26.23Zm28.92,0h-3a2.26,2.26,0,0,1-1-.24,2.08,2.08,0,0,1-.72-.71L144.64,53.64a3.38,3.38,0,0,0,.24,1.07,3.32,3.32,0,0,1,.12,1.08V71.88h-4.8V45.65h2.88c.24,0,.36.12.48.12s.24.12.36.12.24.12.36.24l.36.36,13.68,17.28c0-.47-.12-.83-.12-1.19V45.65H163V71.88Z"/><path class="cls-1" d="M104,56.38a3.52,3.52,0,0,0,1.32-3,3.72,3.72,0,0,0-1.2-3.1,5.64,5.64,0,0,0-3.6-1.07H95.79v8.35h4.44A6.22,6.22,0,0,0,104,56.38ZM125.67,52c-.12-.47-.36-1.07-.48-1.67-.12.6-.36,1.19-.48,1.67s-.36,1.19-.48,1.55L121,62.34h8.28l-3.12-8.82A4.73,4.73,0,0,1,125.67,52Zm-20.76,9.42a4.2,4.2,0,0,0-1.44-1,6.37,6.37,0,0,0-2.28-.48h-5.4V68.3h5.52a5.74,5.74,0,0,0,2.28-.47,4.38,4.38,0,0,0,1.44-1,4.75,4.75,0,0,0,.84-1.31,5.93,5.93,0,0,0,.24-1.55,6.07,6.07,0,0,0-.24-1.55C105.51,62.11,105.27,61.63,104.91,61.39ZM81.27,53.64A4.21,4.21,0,0,0,80,50.42a6,6,0,0,0-4-1.19H73v8.35h3a8.34,8.34,0,0,0,2.4,0,3.71,3.71,0,0,0,1.68-.84,3.37,3.37,0,0,0,1-1.31,8.07,8.07,0,0,0,.24-1.79ZM173.8,30.16v59.6H321.42V30.16ZM316.62,85h-138V34.92h138Z"/><path class="cls-1" d="M198.52,62.34v9.54H195V46.25h7.56a14.14,14.14,0,0,1,4.2.6,9.86,9.86,0,0,1,3,1.55,6,6,0,0,1,1.8,2.5,8.83,8.83,0,0,1,.61,3.22,9.09,9.09,0,0,1-.61,3.22,9.42,9.42,0,0,1-1.8,2.5,8.11,8.11,0,0,1-3,1.67,14,14,0,0,1-4.08.6h-4.2v.23Zm0-2.86h4.2a8.78,8.78,0,0,0,2.64-.36,4.86,4.86,0,0,0,1.92-1.07,5.26,5.26,0,0,0,1.2-1.67,6.16,6.16,0,0,0,.36-2.14,4.7,4.7,0,0,0-1.56-3.82A6.34,6.34,0,0,0,202.72,49h-4.2Zm25.93,12.4H221V46.25h3.48Zm12-9.54v9.54H233V46.25h7.56a14.14,14.14,0,0,1,4.2.6,9.86,9.86,0,0,1,3,1.55,6.07,6.07,0,0,1,1.8,2.5,8.94,8.94,0,0,1,0,6.44,9.64,9.64,0,0,1-1.8,2.5,8.11,8.11,0,0,1-3,1.67,14.14,14.14,0,0,1-4.08.6h-4.2v.23Zm0-2.86h4.2a8.78,8.78,0,0,0,2.64-.36,4.86,4.86,0,0,0,1.92-1.07,5.26,5.26,0,0,0,1.2-1.67,6.16,6.16,0,0,0,.36-2.14,4.7,4.7,0,0,0-1.56-3.82A6.34,6.34,0,0,0,240.65,49h-4.2Zm38.88-13.23v2.86H263v8.47h10.08v2.74H263V69h12.36v2.86H259.49V46.25Zm12.36,14.9V71.88h-3.48V46.25h7.32a14.47,14.47,0,0,1,4.21.48,9.72,9.72,0,0,1,3,1.43,5.34,5.34,0,0,1,1.68,2.26,7.8,7.8,0,0,1,.6,3,5.45,5.45,0,0,1-.48,2.5,6.32,6.32,0,0,1-1.2,2.15,6.57,6.57,0,0,1-2,1.55,7.05,7.05,0,0,1-2.65,1,3.2,3.2,0,0,1,1.2,1.07l7.57,10.13H300.3a1.7,1.7,0,0,1-1.44-.71l-6.72-9.18a3.41,3.41,0,0,0-.72-.6,2.74,2.74,0,0,0-1.09-.12Zm0-2.5h3.6a8.31,8.31,0,0,0,2.65-.36,5.28,5.28,0,0,0,1.92-1.07,5,5,0,0,0,1.2-1.55,5.55,5.55,0,0,0,.35-2,4,4,0,0,0-1.55-3.46A7.81,7.81,0,0,0,291.29,49h-3.84v9.66Z"/></svg>