<svg width="24" height="24" viewBox="0 0 24 24" fill="none" xmlns="http://www.w3.org/2000/svg">
<path d="M21.5826 7.49037C21.4667 7.07496 21.2456 6.69648 20.9406 6.39152C20.6357 6.08656 20.2572 5.86544 19.8418 5.74954C18.2834 5.33204 12.0085 5.33204 12.0085 5.33204C12.0085 5.33204 5.75098 5.32371 4.17599 5.74954C3.76063 5.86564 3.38226 6.08694 3.07744 6.39204C2.77263 6.69715 2.55169 7.07574 2.43599 7.4912C2.14034 9.08688 1.99443 10.7067 2.00016 12.3295C1.99551 13.9465 2.14142 15.5604 2.43599 17.1503C2.55182 17.5657 2.77281 17.9441 3.07762 18.249C3.38242 18.554 3.76073 18.7752 4.17599 18.8912C5.73348 19.3095 12.0093 19.3095 12.0093 19.3095C12.0093 19.3095 18.2659 19.3095 19.8418 18.8912C20.2573 18.7752 20.6358 18.554 20.9408 18.2488C21.2458 17.9437 21.4668 17.5651 21.5826 17.1495C21.8707 15.5593 22.0102 13.9456 21.9993 12.3295C22.0114 10.7067 21.8719 9.08637 21.5826 7.48954V7.49037ZM10.0068 15.3237V9.32703L15.2285 12.3304L10.0068 15.3237Z" fill="white"/>
</svg>
